# Tiled2Unity generated file. Do not modify by hand.
# Wavefront file for 'Scene2_mesh_0004.obj'

# Vertices (Count = 404)
v -1248 -2368 0
v -1280 -2368 0
v -1280 -2336 0
v -1248 -2336 0
v -1280 -2368 0
v -1312 -2368 0
v -1312 -2336 0
v -1280 -2336 0
v -1312 -2368 0
v -1344 -2368 0
v -1344 -2336 0
v -1312 -2336 0
v -1344 -2368 0
v -1376 -2368 0
v -1376 -2336 0
v -1344 -2336 0
v -1376 -2368 0
v -1408 -2368 0
v -1408 -2336 0
v -1376 -2336 0
v -1408 -2368 0
v -1440 -2368 0
v -1440 -2336 0
v -1408 -2336 0
v -1440 -2368 0
v -1472 -2368 0
v -1472 -2336 0
v -1440 -2336 0
v -1472 -2368 0
v -1504 -2368 0
v -1504 -2336 0
v -1472 -2336 0
v -1664 -2368 0
v -1696 -2368 0
v -1696 -2336 0
v -1664 -2336 0
v -1696 -2368 0
v -1728 -2368 0
v -1728 -2336 0
v -1696 -2336 0
v -1728 -2368 0
v -1760 -2368 0
v -1760 -2336 0
v -1728 -2336 0
v -4832 -2368 0
v -4864 -2368 0
v -4864 -2336 0
v -4832 -2336 0
v -4864 -2368 0
v -4896 -2368 0
v -4896 -2336 0
v -4864 -2336 0
v -4896 -2368 0
v -4928 -2368 0
v -4928 -2336 0
v -4896 -2336 0
v -4928 -2368 0
v -4960 -2368 0
v -4960 -2336 0
v -4928 -2336 0
v -4960 -2368 0
v -4992 -2368 0
v -4992 -2336 0
v -4960 -2336 0
v -4992 -2368 0
v -5024 -2368 0
v -5024 -2336 0
v -4992 -2336 0
v -1408 -2176 0
v -1440 -2176 0
v -1440 -2144 0
v -1408 -2144 0
v -1440 -2176 0
v -1472 -2176 0
v -1472 -2144 0
v -1440 -2144 0
v -1472 -2176 0
v -1504 -2176 0
v -1504 -2144 0
v -1472 -2144 0
v -1504 -2176 0
v -1536 -2176 0
v -1536 -2144 0
v -1504 -2144 0
v -1536 -2176 0
v -1568 -2176 0
v -1568 -2144 0
v -1536 -2144 0
v -1568 -2176 0
v -1600 -2176 0
v -1600 -2144 0
v -1568 -2144 0
v -1600 -2176 0
v -1632 -2176 0
v -1632 -2144 0
v -1600 -2144 0
v -1632 -2176 0
v -1664 -2176 0
v -1664 -2144 0
v -1632 -2144 0
v -1664 -2176 0
v -1696 -2176 0
v -1696 -2144 0
v -1664 -2144 0
v -1696 -2176 0
v -1728 -2176 0
v -1728 -2144 0
v -1696 -2144 0
v -1728 -2176 0
v -1760 -2176 0
v -1760 -2144 0
v -1728 -2144 0
v -4576 -2176 0
v -4608 -2176 0
v -4608 -2144 0
v -4576 -2144 0
v -4608 -2176 0
v -4640 -2176 0
v -4640 -2144 0
v -4608 -2144 0
v -4640 -2176 0
v -4672 -2176 0
v -4672 -2144 0
v -4640 -2144 0
v -4672 -2176 0
v -4704 -2176 0
v -4704 -2144 0
v -4672 -2144 0
v -4704 -2176 0
v -4736 -2176 0
v -4736 -2144 0
v -4704 -2144 0
v -4736 -2176 0
v -4768 -2176 0
v -4768 -2144 0
v -4736 -2144 0
v -4768 -2176 0
v -4800 -2176 0
v -4800 -2144 0
v -4768 -2144 0
v -4800 -2176 0
v -4832 -2176 0
v -4832 -2144 0
v -4800 -2144 0
v -4832 -2176 0
v -4864 -2176 0
v -4864 -2144 0
v -4832 -2144 0
v -1152 -1984 0
v -1184 -1984 0
v -1184 -1952 0
v -1152 -1952 0
v -1184 -1984 0
v -1216 -1984 0
v -1216 -1952 0
v -1184 -1952 0
v -1216 -1984 0
v -1248 -1984 0
v -1248 -1952 0
v -1216 -1952 0
v -1248 -1984 0
v -1280 -1984 0
v -1280 -1952 0
v -1248 -1952 0
v -1280 -1984 0
v -1312 -1984 0
v -1312 -1952 0
v -1280 -1952 0
v -1312 -1984 0
v -1344 -1984 0
v -1344 -1952 0
v -1312 -1952 0
v -1344 -1984 0
v -1376 -1984 0
v -1376 -1952 0
v -1344 -1952 0
v -1376 -1984 0
v -1408 -1984 0
v -1408 -1952 0
v -1376 -1952 0
v -1408 -1984 0
v -1440 -1984 0
v -1440 -1952 0
v -1408 -1952 0
v -4832 -1984 0
v -4864 -1984 0
v -4864 -1952 0
v -4832 -1952 0
v -4864 -1984 0
v -4896 -1984 0
v -4896 -1952 0
v -4864 -1952 0
v -4896 -1984 0
v -4928 -1984 0
v -4928 -1952 0
v -4896 -1952 0
v -4928 -1984 0
v -4960 -1984 0
v -4960 -1952 0
v -4928 -1952 0
v -4960 -1984 0
v -4992 -1984 0
v -4992 -1952 0
v -4960 -1952 0
v -4992 -1984 0
v -5024 -1984 0
v -5024 -1952 0
v -4992 -1952 0
v -1408 -1792 0
v -1440 -1792 0
v -1440 -1760 0
v -1408 -1760 0
v -1440 -1792 0
v -1472 -1792 0
v -1472 -1760 0
v -1440 -1760 0
v -1472 -1792 0
v -1504 -1792 0
v -1504 -1760 0
v -1472 -1760 0
v -1504 -1792 0
v -1536 -1792 0
v -1536 -1760 0
v -1504 -1760 0
v -1536 -1792 0
v -1568 -1792 0
v -1568 -1760 0
v -1536 -1760 0
v -1568 -1792 0
v -1600 -1792 0
v -1600 -1760 0
v -1568 -1760 0
v -1600 -1792 0
v -1632 -1792 0
v -1632 -1760 0
v -1600 -1760 0
v -1632 -1792 0
v -1664 -1792 0
v -1664 -1760 0
v -1632 -1760 0
v -1664 -1792 0
v -1696 -1792 0
v -1696 -1760 0
v -1664 -1760 0
v -1696 -1792 0
v -1728 -1792 0
v -1728 -1760 0
v -1696 -1760 0
v -1728 -1792 0
v -1760 -1792 0
v -1760 -1760 0
v -1728 -1760 0
v -3936 -1632 0
v -3968 -1632 0
v -3968 -1600 0
v -3936 -1600 0
v -3968 -1632 0
v -4000 -1632 0
v -4000 -1600 0
v -3968 -1600 0
v -4000 -1632 0
v -4032 -1632 0
v -4032 -1600 0
v -4000 -1600 0
v -4032 -1632 0
v -4064 -1632 0
v -4064 -1600 0
v -4032 -1600 0
v -4064 -1632 0
v -4096 -1632 0
v -4096 -1600 0
v -4064 -1600 0
v -4096 -1632 0
v -4128 -1632 0
v -4128 -1600 0
v -4096 -1600 0
v -3040 -1440 0
v -3072 -1440 0
v -3072 -1408 0
v -3040 -1408 0
v -3072 -1440 0
v -3104 -1440 0
v -3104 -1408 0
v -3072 -1408 0
v -3104 -1440 0
v -3136 -1440 0
v -3136 -1408 0
v -3104 -1408 0
v -3776 -1440 0
v -3808 -1440 0
v -3808 -1408 0
v -3776 -1408 0
v -3808 -1440 0
v -3840 -1440 0
v -3840 -1408 0
v -3808 -1408 0
v -3840 -1440 0
v -3872 -1440 0
v -3872 -1408 0
v -3840 -1408 0
v -3872 -1440 0
v -3904 -1440 0
v -3904 -1408 0
v -3872 -1408 0
v -3904 -1440 0
v -3936 -1440 0
v -3936 -1408 0
v -3904 -1408 0
v -3936 -1440 0
v -3968 -1440 0
v -3968 -1408 0
v -3936 -1408 0
v -2880 -1280 0
v -2912 -1280 0
v -2912 -1248 0
v -2880 -1248 0
v -2912 -1280 0
v -2944 -1280 0
v -2944 -1248 0
v -2912 -1248 0
v -2944 -1280 0
v -2976 -1280 0
v -2976 -1248 0
v -2944 -1248 0
v -2976 -1280 0
v -3008 -1280 0
v -3008 -1248 0
v -2976 -1248 0
v -3008 -1280 0
v -3040 -1280 0
v -3040 -1248 0
v -3008 -1248 0
v -3040 -1280 0
v -3072 -1280 0
v -3072 -1248 0
v -3040 -1248 0
v -3904 -1248 0
v -3936 -1248 0
v -3936 -1216 0
v -3904 -1216 0
v -3936 -1248 0
v -3968 -1248 0
v -3968 -1216 0
v -3936 -1216 0
v -3968 -1248 0
v -4000 -1248 0
v -4000 -1216 0
v -3968 -1216 0
v -4000 -1248 0
v -4032 -1248 0
v -4032 -1216 0
v -4000 -1216 0
v -4032 -1248 0
v -4064 -1248 0
v -4064 -1216 0
v -4032 -1216 0
v -4064 -1248 0
v -4096 -1248 0
v -4096 -1216 0
v -4064 -1216 0
v -4096 -1248 0
v -4128 -1248 0
v -4128 -1216 0
v -4096 -1216 0
v -1760 -1088 0
v -1792 -1088 0
v -1792 -1056 0
v -1760 -1056 0
v -1792 -1088 0
v -1824 -1088 0
v -1824 -1056 0
v -1792 -1056 0
v -1824 -1088 0
v -1856 -1088 0
v -1856 -1056 0
v -1824 -1056 0
v -1856 -1088 0
v -1888 -1088 0
v -1888 -1056 0
v -1856 -1056 0
v -3776 -1056 0
v -3808 -1056 0
v -3808 -1024 0
v -3776 -1024 0
v -3808 -1056 0
v -3840 -1056 0
v -3840 -1024 0
v -3808 -1024 0
v -3840 -1056 0
v -3872 -1056 0
v -3872 -1024 0
v -3840 -1024 0
v -3872 -1056 0
v -3904 -1056 0
v -3904 -1024 0
v -3872 -1024 0
v -3904 -1056 0
v -3936 -1056 0
v -3936 -1024 0
v -3904 -1024 0
v -3936 -1056 0
v -3968 -1056 0
v -3968 -1024 0
v -3936 -1024 0

# Texture cooridinates (Count = 8)
vt 0.1172161 0.9058824
vt 0.2344322 0.9058824
vt 0.2344322 1
vt 0.1172161 1
vt 0.3516484 0.9058824
vt 0.4688645 0.9058824
vt 0.4688645 1
vt 0.3516484 1

# Normal
vn 0 0 -1

# Mesh description
g Scene2_mesh_0004

# Faces
f 1/1/1 2/2/1 3/3/1 4/4/1
f 5/1/1 6/2/1 7/3/1 8/4/1
f 9/1/1 10/2/1 11/3/1 12/4/1
f 13/1/1 14/2/1 15/3/1 16/4/1
f 17/1/1 18/2/1 19/3/1 20/4/1
f 21/1/1 22/2/1 23/3/1 24/4/1
f 25/1/1 26/2/1 27/3/1 28/4/1
f 29/1/1 30/2/1 31/3/1 32/4/1
f 33/1/1 34/2/1 35/3/1 36/4/1
f 37/1/1 38/2/1 39/3/1 40/4/1
f 41/1/1 42/2/1 43/3/1 44/4/1
f 45/1/1 46/2/1 47/3/1 48/4/1
f 49/1/1 50/2/1 51/3/1 52/4/1
f 53/1/1 54/2/1 55/3/1 56/4/1
f 57/5/1 58/6/1 59/7/1 60/8/1
f 61/1/1 62/2/1 63/3/1 64/4/1
f 65/1/1 66/2/1 67/3/1 68/4/1
f 69/1/1 70/2/1 71/3/1 72/4/1
f 73/1/1 74/2/1 75/3/1 76/4/1
f 77/1/1 78/2/1 79/3/1 80/4/1
f 81/1/1 82/2/1 83/3/1 84/4/1
f 85/2/1 86/5/1 87/8/1 88/3/1
f 89/2/1 90/5/1 91/8/1 92/3/1
f 93/1/1 94/2/1 95/3/1 96/4/1
f 97/1/1 98/2/1 99/3/1 100/4/1
f 101/1/1 102/2/1 103/3/1 104/4/1
f 105/1/1 106/2/1 107/3/1 108/4/1
f 109/1/1 110/2/1 111/3/1 112/4/1
f 113/1/1 114/2/1 115/3/1 116/4/1
f 117/1/1 118/2/1 119/3/1 120/4/1
f 121/2/1 122/5/1 123/8/1 124/3/1
f 125/1/1 126/2/1 127/3/1 128/4/1
f 129/1/1 130/2/1 131/3/1 132/4/1
f 133/1/1 134/2/1 135/3/1 136/4/1
f 137/5/1 138/6/1 139/7/1 140/8/1
f 141/1/1 142/2/1 143/3/1 144/4/1
f 145/1/1 146/2/1 147/3/1 148/4/1
f 149/1/1 150/2/1 151/3/1 152/4/1
f 153/1/1 154/2/1 155/3/1 156/4/1
f 157/1/1 158/2/1 159/3/1 160/4/1
f 161/1/1 162/2/1 163/3/1 164/4/1
f 165/1/1 166/2/1 167/3/1 168/4/1
f 169/1/1 170/2/1 171/3/1 172/4/1
f 173/1/1 174/2/1 175/3/1 176/4/1
f 177/1/1 178/2/1 179/3/1 180/4/1
f 181/5/1 182/6/1 183/7/1 184/8/1
f 185/1/1 186/2/1 187/3/1 188/4/1
f 189/1/1 190/2/1 191/3/1 192/4/1
f 193/1/1 194/2/1 195/3/1 196/4/1
f 197/1/1 198/2/1 199/3/1 200/4/1
f 201/5/1 202/6/1 203/7/1 204/8/1
f 205/1/1 206/2/1 207/3/1 208/4/1
f 209/2/1 210/5/1 211/8/1 212/3/1
f 213/1/1 214/2/1 215/3/1 216/4/1
f 217/1/1 218/2/1 219/3/1 220/4/1
f 221/1/1 222/2/1 223/3/1 224/4/1
f 225/1/1 226/2/1 227/3/1 228/4/1
f 229/1/1 230/2/1 231/3/1 232/4/1
f 233/1/1 234/2/1 235/3/1 236/4/1
f 237/1/1 238/2/1 239/3/1 240/4/1
f 241/1/1 242/2/1 243/3/1 244/4/1
f 245/5/1 246/6/1 247/7/1 248/8/1
f 249/1/1 250/2/1 251/3/1 252/4/1
f 253/1/1 254/2/1 255/3/1 256/4/1
f 257/1/1 258/2/1 259/3/1 260/4/1
f 261/1/1 262/2/1 263/3/1 264/4/1
f 265/1/1 266/2/1 267/3/1 268/4/1
f 269/2/1 270/5/1 271/8/1 272/3/1
f 273/1/1 274/2/1 275/3/1 276/4/1
f 277/1/1 278/2/1 279/3/1 280/4/1
f 281/1/1 282/2/1 283/3/1 284/4/1
f 285/1/1 286/2/1 287/3/1 288/4/1
f 289/1/1 290/2/1 291/3/1 292/4/1
f 293/1/1 294/2/1 295/3/1 296/4/1
f 297/1/1 298/2/1 299/3/1 300/4/1
f 301/5/1 302/6/1 303/7/1 304/8/1
f 305/1/1 306/2/1 307/3/1 308/4/1
f 309/1/1 310/2/1 311/3/1 312/4/1
f 313/1/1 314/2/1 315/3/1 316/4/1
f 317/1/1 318/2/1 319/3/1 320/4/1
f 321/1/1 322/2/1 323/3/1 324/4/1
f 325/1/1 326/2/1 327/3/1 328/4/1
f 329/1/1 330/2/1 331/3/1 332/4/1
f 333/1/1 334/2/1 335/3/1 336/4/1
f 337/1/1 338/2/1 339/3/1 340/4/1
f 341/5/1 342/6/1 343/7/1 344/8/1
f 345/1/1 346/2/1 347/3/1 348/4/1
f 349/1/1 350/2/1 351/3/1 352/4/1
f 353/1/1 354/2/1 355/3/1 356/4/1
f 357/1/1 358/2/1 359/3/1 360/4/1
f 361/1/1 362/2/1 363/3/1 364/4/1
f 365/5/1 366/6/1 367/7/1 368/8/1
f 369/1/1 370/2/1 371/3/1 372/4/1
f 373/2/1 374/5/1 375/8/1 376/3/1
f 377/1/1 378/2/1 379/3/1 380/4/1
f 381/5/1 382/6/1 383/7/1 384/8/1
f 385/1/1 386/2/1 387/3/1 388/4/1
f 389/1/1 390/2/1 391/3/1 392/4/1
f 393/1/1 394/2/1 395/3/1 396/4/1
f 397/1/1 398/2/1 399/3/1 400/4/1
f 401/1/1 402/2/1 403/3/1 404/4/1

